<svg width="81" height="28" viewBox="0 0 81 28" fill="none" xmlns="http://www.w3.org/2000/svg">
<path d="M33.9854 3.4873C34.3969 3.48732 34.7414 3.56697 35.0186 3.72656C35.2957 3.88618 35.5562 4.13806 35.7998 4.48242C36.2618 5.12926 36.7321 5.9654 37.2109 6.99023C37.6981 8.00663 38.1685 9.12382 38.6221 10.3418C39.0757 11.5598 39.4835 12.8072 39.8447 14.084C40.2143 15.3525 40.5167 16.5749 40.752 17.751C40.9872 18.9271 41.1217 19.973 41.1553 20.8887C41.1585 21.0619 41.1287 21.2008 41.0684 21.3066C40.9122 22.2921 40.0616 23.0459 39.0322 23.0459C38.0175 23.0459 37.1753 22.3135 37.002 21.3486C36.9315 21.2531 36.8907 21.1258 36.8838 20.9639C36.8502 20.0231 36.6984 18.8809 36.4297 17.5371H29.5498C29.3147 18.8473 29.1801 19.9896 29.1465 20.9639C29.1438 21.027 29.1329 21.0847 29.1201 21.1377C29.0401 22.2048 28.152 23.0459 27.0645 23.0459C25.9742 23.0459 25.083 22.2007 25.0068 21.1299C25.0034 21.1006 25.0026 21.0696 25.002 21.0371C25.0015 21.0186 25 21.0001 25 20.9814C25 20.9059 25.0048 20.8313 25.0127 20.7578C25.0641 19.8765 25.1941 18.8869 25.4043 17.7891C25.6395 16.5962 25.9419 15.3609 26.3115 14.084C26.6811 12.8072 27.0923 11.5598 27.5459 10.3418C27.9995 9.11546 28.4699 7.99391 28.957 6.97754C29.4443 5.96107 29.9198 5.12926 30.3818 4.48242C30.6254 4.13809 30.8816 3.88614 31.1504 3.72656C31.4276 3.56701 31.7678 3.4873 32.1709 3.4873H33.9854ZM56.8574 3.04785C57.9027 3.07496 58.7422 3.9296 58.7422 4.98145C58.7422 5.05548 58.7356 5.12832 58.7275 5.2002C58.7449 5.28965 58.7549 5.39039 58.7549 5.50293V20.5107C58.7549 20.8887 58.6838 21.1578 58.541 21.3174C58.3983 21.4769 58.1376 21.5566 57.7598 21.5566H56.5498C56.1886 21.5566 55.8185 21.4975 55.4404 21.3799C55.0625 21.2538 54.6339 20.9771 54.1553 20.5488C53.6764 20.112 53.1093 19.4352 52.4541 18.5195C51.7989 17.6039 51.0099 16.3521 50.0859 14.7646C49.3047 13.4123 48.6784 12.3371 48.208 11.5391C47.7461 10.7412 47.393 10.1405 47.1494 9.7373C46.9058 9.32568 46.7293 9.03949 46.6201 8.87988C46.511 8.71199 46.4183 8.58592 46.3428 8.50195V20.7002C46.3503 20.7695 46.3545 20.8398 46.3545 20.9111C46.3545 21.9801 45.4879 22.8467 44.4189 22.8467C43.3502 22.8465 42.4834 21.9799 42.4834 20.9111C42.4834 20.8311 42.4905 20.7523 42.5 20.6748V4.92383C42.5 4.4282 42.5968 4.06666 42.79 3.83984C42.9833 3.60471 43.3234 3.4873 43.8105 3.4873H44.9824C45.4108 3.48732 45.8144 3.5455 46.1924 3.66309C46.5786 3.77233 46.9859 4.0244 47.4141 4.41895C47.8509 4.81377 48.3555 5.42714 48.9268 6.25879C49.5063 7.08195 50.2028 8.20788 51.0176 9.63574C51.7987 10.9965 52.4251 12.0846 52.8955 12.8994C53.3743 13.7141 53.7435 14.3362 54.0039 14.7646C54.2643 15.1931 54.458 15.4998 54.584 15.6846C54.7184 15.8693 54.8281 16.0201 54.9121 16.1377V5.50293C54.9121 5.46537 54.9142 5.42929 54.916 5.39453C54.887 5.26137 54.8711 5.12329 54.8711 4.98145C54.8711 3.91251 55.7377 3.0459 56.8066 3.0459C56.8148 3.0459 56.8229 3.04677 56.8311 3.04688C56.8339 3.04676 56.837 3.0459 56.8398 3.0459C56.8457 3.0459 56.8515 3.04744 56.8574 3.04785ZM69.8613 3.18457C71.1718 3.18458 72.2178 3.31049 72.999 3.5625C73.78 3.81446 74.3722 4.10842 74.7754 4.44434C75.1786 4.78036 75.4605 5.07513 75.6201 5.32715C75.6422 5.36191 75.6604 5.39633 75.6777 5.42871C76.1558 5.80054 76.4648 6.3797 76.4648 7.03223C76.4648 8.15449 75.5548 9.06426 74.4326 9.06445C73.5485 9.06445 72.7981 8.4992 72.5186 7.71094C72.4218 7.58814 72.297 7.44738 72.1416 7.29199C71.9652 7.10739 71.6968 6.94346 71.3359 6.80078C70.9831 6.65798 70.4913 6.58692 69.8613 6.58691C68.4753 6.58691 67.3873 7.09066 66.5977 8.09863C65.808 9.09829 65.4131 10.5392 65.4131 12.4209C65.4131 14.3949 65.821 15.8941 66.6357 16.9189C67.459 17.9438 68.6395 18.457 70.1768 18.457C70.9491 18.457 71.5158 18.4021 71.877 18.293C72.2465 18.1754 72.4822 18.0871 72.583 18.0283V14.1094C72.583 14.0867 72.5852 14.0646 72.5859 14.043C72.5621 13.9186 72.5489 13.7905 72.5488 13.6592C72.5488 12.5368 73.4587 11.627 74.5811 11.627C75.7032 11.6272 76.6133 12.5369 76.6133 13.6592C76.6133 13.6903 76.6098 13.7212 76.6084 13.752C76.6366 13.8544 76.6533 13.9731 76.6533 14.1094L76.6699 18.2607C76.6746 19.4405 76.1264 20.5965 75.0645 21.1104C74.552 21.354 74.3467 21.3761 73.4395 21.5693C72.5323 21.7625 71.3943 21.8594 70.0254 21.8594C68.1857 21.8594 66.5974 21.557 65.2617 20.9521C63.9344 20.3389 62.9142 19.3511 62.2002 17.9902C61.4862 16.621 61.1289 14.8108 61.1289 12.5596C61.1289 9.56061 61.8973 7.25021 63.4346 5.62891C64.9719 3.9992 67.1144 3.18457 69.8613 3.18457ZM32.9521 7.46875C32.3977 8.35081 31.8898 9.40536 31.4277 10.6318C30.9657 11.8583 30.5665 13.1185 30.2305 14.4121H35.6992C35.3464 13.1185 34.9386 11.8583 34.4766 10.6318C34.0145 9.40536 33.5314 8.35081 33.0273 7.46875H32.9521Z" fill="#70CAFA"/>
<path d="M17.8871 1.93067C18.0313 2.1387 18.1392 2.36079 18.2131 2.58755C18.2842 2.67059 18.3448 2.76391 18.4275 2.97722C18.6201 3.44456 18.8724 5.61276 18.8633 6.2855C18.8604 6.96687 18.7814 7.62412 18.5211 8.69302C18.2739 9.7652 17.8671 11.1312 17.2997 12.7906C18.4 12.861 19.3453 12.9485 20.1353 13.0594C21.3569 13.2309 21.8367 13.2515 23.1838 13.5204C24.0166 13.6867 24.8215 13.8696 25.2959 14.1068C25.9056 14.2309 26.4844 14.5954 26.882 15.1685C26.8842 15.1716 26.8866 15.175 26.8887 15.1781C26.8915 15.1818 26.8947 15.1851 26.8973 15.1888C26.9039 15.1983 26.909 15.2091 26.9149 15.2193C27.6531 16.3355 27.434 17.796 26.4101 18.5062C26.3999 18.5133 26.3882 18.5181 26.3779 18.5249C26.3662 18.5334 26.355 18.5432 26.3429 18.5516L14.088 27.0514C14.0692 27.0644 14.0495 27.0754 14.031 27.0874C14.0173 27.0974 14.0054 27.1099 13.9915 27.1196C12.9522 27.8404 11.4783 27.5143 10.7 26.3921C10.3067 25.8248 10.1663 25.1629 10.2579 24.5535C10.1929 24.0918 10.4309 23.3452 10.4827 22.3297C10.4893 21.5805 10.8516 20.5173 11.119 19.3129C11.2921 18.5338 11.5426 17.6176 11.8624 16.5618C10.1087 16.5115 8.56878 16.1331 7.4777 15.9889C6.28677 15.6112 5.7351 15.469 5.09589 15.233C4.59415 15.0531 3.79163 14.8646 3.29515 14.6244C2.58561 14.5735 1.88965 14.2018 1.43762 13.5501C0.939483 12.8319 0.861976 11.9552 1.15243 11.2284C1.15449 11.2162 1.15726 11.2037 1.15907 11.1917C1.16598 11.1825 1.17271 11.1734 1.17943 11.1645C1.30172 10.8836 1.47963 10.6279 1.71229 10.4146C1.73917 10.3768 1.77149 10.3391 1.81046 10.3025C1.81627 10.294 1.82301 10.2856 1.82921 10.2765L14.4123 1.54901C14.5154 1.43431 14.6319 1.32894 14.7633 1.23779C14.948 1.10976 15.1467 1.01561 15.3533 0.955768C15.5713 0.868441 15.7762 0.842642 15.9678 0.875377C16.6904 0.886061 17.42 1.25748 17.8871 1.93067Z" fill="#FFA873"/>
</svg>
