<svg width="30" height="30" viewBox="0 0 30 30" fill="none" xmlns="http://www.w3.org/2000/svg">
<rect width="30" height="30" rx="15" fill="url(#paint0_linear_154_3246)"/>
<path d="M17.7081 23H10.0366C7.81687 22.9448 7 21.2897 7 19.5793C7 17.8506 7.65705 16.2138 10.0721 16.1586H17.6726C20.0699 16.1586 20.7447 17.8322 20.7447 19.5793C20.7447 21.308 19.9101 22.9448 17.7081 23ZM10.8357 20.4988H16.909C17.6016 20.4437 17.8857 20.2414 17.8857 19.5793C17.8857 18.8989 17.6016 18.6966 16.909 18.6414H10.8357C10.1432 18.6966 9.85905 18.8989 9.85905 19.5793C9.85905 20.2414 10.1432 20.4437 10.8357 20.4988ZM13.0555 14.908H8.49168C7.19534 14.908 7.05327 14.3563 7.05327 13.6207V8.78391C7.05327 7.55172 7.72808 7.18391 8.49168 7.18391C9.23751 7.18391 9.93008 7.51494 9.93008 8.78391V12.4069H13.0555C14.4229 12.4069 14.6715 13.0322 14.6715 13.6207C14.6715 14.3747 14.3518 14.908 13.0555 14.908ZM18.4717 15.423C17.6726 15.423 17.0333 15.0368 17.0333 13.8046V8.6C17.0333 7.36782 17.7081 7 18.4717 7C19.2175 7 19.9101 7.33103 19.9101 8.6V9.90575H21.384C22.7336 9.90575 23 10.6046 23 11.1931C23 11.9287 22.7336 12.5172 21.384 12.5172H19.9101V13.8046C19.9101 15.0736 19.2353 15.423 18.4717 15.423Z" fill="white"/>
<defs>
<linearGradient id="paint0_linear_154_3246" x1="0" y1="0" x2="30" y2="30" gradientUnits="userSpaceOnUse">
<stop stop-color="#70CAFA"/>
<stop offset="1" stop-color="#FFA873"/>
</linearGradient>
</defs>
</svg>
