<svg width="24" height="24" viewBox="0 0 24 24" fill="none" xmlns="http://www.w3.org/2000/svg">
<path d="M9.26953 2.89062C10.8959 1.70332 13.1041 1.70332 14.7305 2.89062L20.29 7C21.3566 7.7752 21.9913 9.01159 22 10.3301V17.7705C21.9418 20.0889 20.0757 21.9375 17.7832 22H6.2168C3.92434 21.9375 2.05816 20.0889 2 17.7705V10.3408C2.0061 9.01646 2.64517 7.77414 3.71973 7L9.26953 2.89062ZM13.8398 4.10059C12.7438 3.30021 11.2562 3.30021 10.1602 4.10059L4.61035 8.2002C3.91852 8.6942 3.50534 9.49074 3.5 10.3408V17.7705C3.56504 19.333 4.87741 20.5507 6.44043 20.5H17.5596C19.1247 20.5563 20.4403 19.3355 20.5 17.7705V10.3301C20.4947 9.48558 20.0808 8.69628 19.3896 8.21094L13.8398 4.10059ZM16.5 15.751C16.9141 15.751 17.2497 16.086 17.25 16.5C17.25 16.9142 16.9142 17.25 16.5 17.25H7.5C7.08579 17.25 6.75 16.9142 6.75 16.5C6.75026 16.086 7.08595 15.751 7.5 15.751H16.5Z" fill="#212223"/>
</svg>
