<svg width="80" height="80" viewBox="0 0 80 80" fill="none" xmlns="http://www.w3.org/2000/svg">
<path d="M6.66667 63.3333V30C6.66667 28.2319 7.36905 26.5362 8.61929 25.286C9.86954 24.0357 11.5652 23.3333 13.3333 23.3333H15C16.035 23.3333 17.0557 23.0924 17.9814 22.6295C18.9071 22.1667 19.7124 21.4946 20.3333 20.6667L27.7333 10.8C27.9196 10.5516 28.1612 10.35 28.4389 10.2111C28.7166 10.0723 29.0228 10 29.3333 10H50.6667C50.9772 10 51.2834 10.0723 51.5611 10.2111C51.8388 10.35 52.0804 10.5516 52.2667 10.8L59.6667 20.6667C60.2876 21.4946 61.0929 22.1667 62.0186 22.6295C62.9443 23.0924 63.965 23.3333 65 23.3333H66.6667C68.4348 23.3333 70.1305 24.0357 71.3807 25.286C72.631 26.5362 73.3333 28.2319 73.3333 30V63.3333C73.3333 65.1014 72.631 66.7971 71.3807 68.0474C70.1305 69.2976 68.4348 70 66.6667 70H13.3333C11.5652 70 9.86954 69.2976 8.61929 68.0474C7.36905 66.7971 6.66667 65.1014 6.66667 63.3333Z" stroke="#9C9EA3" stroke-width="2" stroke-linecap="round" stroke-linejoin="round"/>
<path d="M40 56.6667C43.5362 56.6667 46.9276 55.2619 49.4281 52.7614C51.9286 50.2609 53.3333 46.8696 53.3333 43.3333C53.3333 39.7971 51.9286 36.4057 49.4281 33.9052C46.9276 31.4048 43.5362 30 40 30C36.4638 30 33.0724 31.4048 30.5719 33.9052C28.0714 36.4057 26.6667 39.7971 26.6667 43.3333C26.6667 46.8696 28.0714 50.2609 30.5719 52.7614C33.0724 55.2619 36.4638 56.6667 40 56.6667Z" stroke="#9C9EA3" stroke-width="2" stroke-linecap="round" stroke-linejoin="round"/>
</svg>
