<svg width="171" height="49" viewBox="0 0 171 49" fill="none" xmlns="http://www.w3.org/2000/svg">
<path d="M74.3799 6.09229C75.0991 6.09229 75.7012 6.23138 76.1855 6.51025C76.6698 6.78908 77.1242 7.22994 77.5498 7.83154C78.3571 8.96171 79.179 10.4227 80.0156 12.2134C80.8669 13.9893 81.6899 15.9408 82.4824 18.0688C83.275 20.197 83.9861 22.377 84.6172 24.6079C85.263 26.8242 85.7922 28.9603 86.2031 31.0151C86.614 33.0697 86.8485 34.8969 86.9072 36.4966C86.9128 36.7943 86.8636 37.0345 86.7617 37.2183C86.4928 38.9447 85.0001 40.2661 83.1982 40.2661C81.4276 40.266 79.9559 38.9897 79.6504 37.3071C79.5253 37.1398 79.4555 36.9137 79.4434 36.6284C79.3846 34.9846 79.121 32.9883 78.6514 30.6401H66.6299C66.2189 32.9296 65.9845 34.9259 65.9258 36.6284C65.921 36.7415 65.9052 36.8454 65.8818 36.9399C65.7383 38.8005 64.1854 40.2659 62.2881 40.2661C60.3545 40.2661 58.7757 38.7445 58.6846 36.8335C58.6832 36.8118 58.6813 36.7897 58.6807 36.7671V36.6587C58.6807 36.526 58.6882 36.3951 58.7021 36.2661C58.7921 34.7267 59.0196 32.998 59.3867 31.0806C59.7977 28.9964 60.3259 26.8388 60.9717 24.6079C61.6175 22.377 62.3373 20.1971 63.1299 18.0688C63.9224 15.9261 64.7445 13.9668 65.5957 12.1909C66.447 10.415 67.2758 8.96168 68.083 7.83154C68.5086 7.22982 68.9561 6.78912 69.4258 6.51025C69.9101 6.23138 70.5054 6.09229 71.21 6.09229H74.3799ZM114.356 5.32373C116.177 5.37805 117.636 6.87034 117.636 8.70361C117.636 8.83543 117.627 8.96538 117.612 9.09326C117.642 9.2477 117.658 9.42127 117.658 9.61475V35.8364C117.658 36.4968 117.534 36.9668 117.284 37.2456C117.035 37.5244 116.579 37.6636 115.919 37.6636H113.806C113.175 37.6636 112.529 37.5605 111.868 37.355C111.208 37.1348 110.459 36.6504 109.622 35.9019C108.786 35.1387 107.795 33.9574 106.65 32.3579C105.506 30.7581 104.125 28.5713 102.511 25.7974C101.146 23.4343 100.052 21.555 99.2305 20.1606C98.4232 18.7663 97.8065 17.7167 97.3809 17.0122C96.9553 16.2932 96.6468 15.794 96.4561 15.5151C96.2653 15.2217 96.1037 15.0017 95.9717 14.855V36.1597C95.9854 36.2833 95.9922 36.4093 95.9922 36.5366C95.992 38.404 94.4787 39.9182 92.6113 39.9185C90.7437 39.9185 89.2296 38.4041 89.2295 36.5366C89.2295 36.3931 89.2395 36.2516 89.2568 36.1128V8.60205C89.2569 7.73619 89.4261 7.10475 89.7637 6.7085C90.1013 6.29777 90.6958 6.09229 91.5469 6.09229H93.5947C94.3431 6.09233 95.0476 6.19544 95.708 6.40088C96.3831 6.59171 97.0953 7.03145 97.8438 7.72119C98.607 8.41103 99.4873 9.48297 100.485 10.936C101.498 12.3744 102.717 14.3413 104.141 16.8364C105.506 19.214 106.599 21.1149 107.421 22.5386C108.257 23.9622 108.903 25.0488 109.358 25.7974C109.813 26.5456 110.151 27.081 110.371 27.4038C110.606 27.7267 110.797 27.9913 110.943 28.1968V9.61475C110.943 9.55087 110.947 9.48943 110.95 9.43018C110.899 9.19614 110.872 8.95303 110.872 8.70361C110.872 6.83596 112.386 5.32178 114.254 5.32178C114.267 5.32178 114.281 5.3226 114.294 5.32275C114.3 5.32247 114.306 5.32178 114.312 5.32178C114.326 5.32178 114.341 5.32226 114.356 5.32373ZM137.063 5.56396C139.353 5.56397 141.181 5.78478 142.546 6.2251C143.911 6.66537 144.945 7.17911 145.649 7.76611C146.354 8.35321 146.846 8.86681 147.125 9.30713C147.162 9.36559 147.193 9.42342 147.223 9.47803C148.061 10.1275 148.601 11.144 148.601 12.2866C148.601 14.2477 147.011 15.8374 145.05 15.8374C143.5 15.8372 142.183 14.844 141.698 13.4595C141.531 13.2479 141.314 13.0081 141.048 12.7417C140.74 12.4189 140.27 12.1327 139.64 11.8833C139.023 11.6338 138.164 11.5083 137.063 11.5083C134.642 11.5083 132.741 12.3896 131.361 14.1509C129.982 15.8974 129.292 18.4142 129.292 21.7017C129.292 25.1508 130.003 27.7714 131.427 29.562C132.865 31.3526 134.927 32.2475 137.613 32.2476C138.964 32.2476 139.955 32.1522 140.586 31.9614C141.232 31.7559 141.643 31.6023 141.819 31.4995V24.6519C141.819 24.6146 141.823 24.5782 141.824 24.5425C141.782 24.323 141.759 24.0966 141.759 23.8647C141.759 21.9037 143.349 20.314 145.31 20.314C147.271 20.3141 148.86 21.9038 148.86 23.8647C148.86 23.9201 148.858 23.9751 148.855 24.0298C148.904 24.2081 148.931 24.4151 148.931 24.6519L148.959 31.9048C148.967 33.9663 148.01 35.9864 146.154 36.8843C145.259 37.3098 144.901 37.3485 143.316 37.686C141.731 38.0236 139.742 38.1919 137.35 38.1919C134.135 38.1919 131.361 37.6637 129.027 36.6069C126.708 35.5355 124.925 33.8108 123.678 31.4331C122.43 29.0407 121.806 25.8774 121.806 21.9438C121.806 16.7042 123.149 12.6681 125.835 9.83545C128.521 6.98802 132.264 5.56396 137.063 5.56396ZM72.5742 13.0493C71.6055 14.5904 70.7174 16.4328 69.9102 18.5757C69.103 20.7184 68.4064 22.92 67.8193 25.1802H77.374C76.7576 22.9199 76.0455 20.7185 75.2383 18.5757C74.431 16.4328 73.5877 14.5904 72.707 13.0493H72.5742Z" fill="#70CAFA"/>
<path d="M46.253 3.37458C46.5053 3.73845 46.6943 4.12605 46.8235 4.5227C46.9472 4.66745 47.0525 4.83124 47.1966 5.20282C47.533 6.0202 47.9751 9.80666 47.9594 10.9822C47.9542 12.1727 47.8153 13.3212 47.3604 15.1888C46.9287 17.061 46.2184 19.4457 45.2282 22.3426C47.1506 22.4656 48.8019 22.6241 50.1821 22.8178C52.317 23.1175 53.1548 23.1536 55.5092 23.6238C56.9719 23.9158 58.3864 24.2321 59.2134 24.6497C60.2731 24.8696 61.2779 25.5068 61.9692 26.5034C61.9725 26.5081 61.9759 26.5131 61.9792 26.5178C61.9846 26.5249 61.9901 26.5318 61.995 26.5389C62.0082 26.5579 62.0211 26.5778 62.0327 26.5984C63.3165 28.5476 62.9306 31.0943 61.1438 32.3336C61.1226 32.3483 61.1007 32.3618 61.0793 32.376C61.0621 32.3883 61.0452 32.4021 61.0275 32.4143L39.6159 47.2651C39.5901 47.283 39.5635 47.2988 39.538 47.3155C39.5075 47.3381 39.4772 47.3613 39.4458 47.3831C37.63 48.6425 35.055 48.0745 33.6952 46.1139C33.0073 45.122 32.7626 43.9638 32.9232 42.8985C32.8107 42.0916 33.226 40.788 33.3163 39.0152C33.3279 37.7063 33.9613 35.8486 34.4286 33.7443C34.7308 32.3835 35.1616 30.7812 35.7201 28.9373C32.6589 28.8486 29.9714 28.1867 28.0664 27.935C25.9856 27.2751 25.0213 27.0279 23.9045 26.6157C23.0276 26.3011 21.6225 25.9765 20.755 25.5568C19.516 25.4672 18.3018 24.8127 17.5125 23.6747C16.6371 22.4127 16.5005 20.8692 17.0183 19.5951C17.0204 19.5819 17.0234 19.5689 17.0254 19.5557C17.0329 19.5458 17.0403 19.5358 17.0476 19.5261C17.2644 19.0202 17.5859 18.5598 18.0064 18.1789C18.0506 18.1195 18.102 18.0599 18.1633 18.0023C18.1737 17.9871 18.1852 17.9719 18.1963 17.9557L40.1728 2.7131C40.3545 2.5098 40.5606 2.32407 40.793 2.16287C41.1177 1.93769 41.4684 1.77395 41.8318 1.66941C42.2066 1.52014 42.5585 1.47528 42.8887 1.52941C44.1547 1.54471 45.4347 2.19479 46.253 3.37458Z" fill="#FFA873"/>
</svg>
