<svg width="16" height="16" viewBox="0 0 16 16" fill="none" xmlns="http://www.w3.org/2000/svg">
<path d="M12.5625 5.25C12.4709 6.52094 11.5281 7.5 10.5 7.5C9.47187 7.5 8.5275 6.52125 8.4375 5.25C8.34375 3.92781 9.26156 3 10.5 3C11.7384 3 12.6562 3.95187 12.5625 5.25Z" stroke="#B4B5B9" stroke-linecap="round" stroke-linejoin="round"/>
<path d="M10.5 9.5C8.46344 9.5 6.505 10.5116 6.01437 12.4816C5.94937 12.7422 6.11281 13 6.38062 13H14.6197C14.8875 13 15.05 12.7422 14.9859 12.4816C14.4953 10.48 12.5369 9.5 10.5 9.5Z" stroke="#B4B5B9" stroke-miterlimit="10"/>
<path d="M6.25005 5.81063C6.17693 6.82563 5.41505 7.625 4.5938 7.625C3.77255 7.625 3.00943 6.82594 2.93755 5.81063C2.86287 4.75469 3.60443 4 4.5938 4C5.58318 4 6.32474 4.77406 6.25005 5.81063Z" stroke="#B4B5B9" stroke-linecap="round" stroke-linejoin="round"/>
<path d="M6.43744 9.56252C5.87338 9.30409 5.25213 9.20471 4.59369 9.20471C2.96869 9.20471 1.40306 10.0125 1.01088 11.586C0.959314 11.7941 1.08994 12 1.30369 12H4.81244" stroke="#B4B5B9" stroke-miterlimit="10" stroke-linecap="round"/>
</svg>
