<svg width="24" height="24" viewBox="0 0 24 24" fill="none" xmlns="http://www.w3.org/2000/svg">
<rect x="0.5" y="0.5" width="23" height="23" rx="11.5" fill="white"/>
<rect x="0.5" y="0.5" width="23" height="23" rx="11.5" stroke="#EEEEEF"/>
<path d="M12.0001 7.91664V6.28914C12.0001 6.02664 11.6851 5.89831 11.5043 6.08498L9.2876 8.29581C9.17093 8.41248 9.17093 8.59331 9.2876 8.70998L11.4984 10.9208C11.6851 11.1016 12.0001 10.9733 12.0001 10.7108V9.08331C14.1759 9.08331 15.8968 11.0783 15.4184 13.3358C15.1443 14.66 14.0709 15.7275 12.7526 16.0016C10.6701 16.4391 8.8151 15.01 8.5351 13.0791C8.5143 12.942 8.44534 12.8168 8.34058 12.726C8.23581 12.6351 8.1021 12.5845 7.96343 12.5833C7.61343 12.5833 7.33343 12.8925 7.3801 13.2425C7.74176 15.8033 10.1801 17.6991 12.9393 17.1625C14.7593 16.8066 16.2234 15.3425 16.5793 13.5225C17.1568 10.53 14.8818 7.91664 12.0001 7.91664Z" fill="#9C9EA3"/>
</svg>
