<svg width="20" height="20" viewBox="0 0 20 20" fill="none" xmlns="http://www.w3.org/2000/svg">
<path d="M4.99994 17.2916C5.16583 17.2924 5.32503 17.2263 5.4416 17.1083L12.1083 10.4416C12.352 10.1976 12.352 9.8023 12.1083 9.55829L5.4416 2.89162C5.19535 2.66215 4.8116 2.66893 4.57359 2.90694C4.33558 3.14495 4.32881 3.5287 4.55827 3.77495L10.7833 9.99995L4.55827 16.225C4.31456 16.469 4.31456 16.8643 4.55827 17.1083C4.67484 17.2263 4.83405 17.2924 4.99994 17.2916Z" fill="#5EBEF8"/>
<path d="M10.6245 17.2916C10.7903 17.2924 10.9495 17.2263 11.0661 17.1083L17.7328 10.4416C17.9765 10.1976 17.9765 9.8023 17.7328 9.55829L11.0661 2.89162C10.8199 2.66215 10.4361 2.66893 10.1981 2.90694C9.96009 3.14495 9.95332 3.5287 10.1828 3.77495L16.4078 9.99995L10.1828 16.225C9.93907 16.469 9.93907 16.8643 10.1828 17.1083C10.2994 17.2263 10.4586 17.2924 10.6245 17.2916Z" fill="#5EBEF8"/>
</svg>
