<svg width="32" height="37" viewBox="0 0 32 37" fill="none" xmlns="http://www.w3.org/2000/svg">
<path d="M7.66675 15.8333V7.5C7.66675 7.05797 7.84234 6.63405 8.1549 6.32149C8.46746 6.00893 8.89139 5.83333 9.33341 5.83333H9.75008C10.0088 5.83333 10.264 5.77309 10.4954 5.65738C10.7269 5.54167 10.9282 5.37366 11.0834 5.16667L12.9334 2.7C12.98 2.6379 13.0404 2.5875 13.1098 2.55279C13.1792 2.51807 13.2558 2.5 13.3334 2.5H18.6667C18.7444 2.5 18.8209 2.51807 18.8904 2.55279C18.9598 2.5875 19.0202 2.6379 19.0667 2.7L20.9167 5.16667C21.072 5.37366 21.2733 5.54167 21.5047 5.65738C21.7362 5.77309 21.9913 5.83333 22.2501 5.83333H22.6667C23.1088 5.83333 23.5327 6.00893 23.8453 6.32149C24.1578 6.63405 24.3334 7.05797 24.3334 7.5V15.8333C24.3334 16.2754 24.1578 16.6993 23.8453 17.0118C23.5327 17.3244 23.1088 17.5 22.6667 17.5H9.33341C8.89139 17.5 8.46746 17.3244 8.1549 17.0118C7.84234 16.6993 7.66675 16.2754 7.66675 15.8333Z" stroke="#9C9EA3" stroke-width="1.5" stroke-linecap="round" stroke-linejoin="round"/>
<path d="M16.0001 14.1667C16.8841 14.1667 17.732 13.8155 18.3571 13.1904C18.9822 12.5652 19.3334 11.7174 19.3334 10.8333C19.3334 9.94928 18.9822 9.10143 18.3571 8.47631C17.732 7.85119 16.8841 7.5 16.0001 7.5C15.116 7.5 14.2682 7.85119 13.6431 8.47631C13.0179 9.10143 12.6667 9.94928 12.6667 10.8333C12.6667 11.7174 13.0179 12.5652 13.6431 13.1904C14.2682 13.8155 15.116 14.1667 16.0001 14.1667Z" stroke="#9C9EA3" stroke-width="1.5" stroke-linecap="round" stroke-linejoin="round"/>
<path d="M5.82422 24.6211C5.8125 27.6328 4.79297 30.3867 1.04297 32.2266L0.527344 31.5234C2.49023 30.5742 3.66797 29.3672 4.30078 27.9609L0.726562 28.3008L0.574219 27.4922L4.58203 27.2227C4.76367 26.6367 4.86914 26.0215 4.91016 25.3828H1.10156V24.6211H5.82422ZM8.48438 23.5312V27.7734H10.1719V28.5469H8.48438V33.9492H7.57031V23.5312H8.48438ZM15.1641 24.75V27.4688H16.7461V23.7539H17.625V33.4219H16.7461V28.2305H15.1641V31.1484H11.1797V24.75H15.1641ZM12.0469 25.4883V30.4102H14.2969V25.4883H12.0469ZM19.7227 23.5312V33.9492H18.832V23.5312H19.7227ZM29.2266 23.5312V27.6797H30.9727V28.4531H29.2266V33.9727H28.3125V23.5312H29.2266ZM26.3086 24.5039V28.2305H22.5117V30.668C24.4453 30.668 25.793 30.6035 27.375 30.3047L27.4688 31.0664C25.8281 31.3711 24.4336 31.4414 22.4297 31.4531H21.5977V27.4688H25.3945V25.2656H21.5742V24.5039H26.3086Z" fill="#9C9EA3"/>
</svg>
