<svg width="231" height="97" viewBox="0 0 231 97" fill="none" xmlns="http://www.w3.org/2000/svg">
<g clip-path="url(#clip0_134_8872)">
<path d="M115.5 30.5002L101.653 44.513C100.559 45.6199 99.9443 47.0911 99.9443 48.2095L101.855 49.4974H119.997L115.5 30.4998L115.5 30.5002Z" fill="#E1F5FB"/>
<path d="M131.055 57.0645V48.6872C131.055 47.1215 130.441 45.62 129.347 44.513L115.5 30.5002V57.0649H131.055V57.0645Z" fill="#CCEFFA"/>
<path d="M101.05 6.64587L99.9443 7.8711V12.3129C99.9443 13.8786 100.559 15.38 101.653 16.487L104.805 19.6773L121.582 21.7579L125.904 6.64587H101.05Z" fill="#E1F5FB"/>
<path d="M99.9443 3.93555V7.8711H118.416C120.564 7.8711 122.305 9.63324 122.305 11.8066V12.3133C122.305 13.879 121.998 15.3804 121.451 16.4874L119.711 20.0092L126.194 19.6782L129.347 16.4878C130.441 15.3808 131.055 13.879 131.055 12.3133V3.93555H99.9443Z" fill="#CCEFFA"/>
<path d="M104.854 19.744L113.631 28.7275C114.172 29.2818 114.626 30.0111 114.625 30.7947L120.75 20.7907L119.769 19.7444H104.854V19.744ZM114.476 43.1421C114.476 43.9257 114.172 44.6774 113.631 45.2313L111.473 47.4401C110.931 47.9943 110.197 48.3057 109.432 48.3053H100.042V57.1691H118.422V49.0762L114.476 43.1417L114.476 43.1421Z" fill="#FFA873"/>
<path d="M130.958 48.3045H121.584C120.819 48.3045 120.086 47.9932 119.546 47.4394L117.391 45.2306C116.85 44.6763 116.547 43.9251 116.547 43.1414V30.8162C116.547 30.0325 116.85 29.2813 117.391 28.727L126.154 19.744H119.909L115.391 27.8094C114.889 28.7049 114.625 29.7196 114.625 30.7523V43.2582C114.625 44.6342 114.937 45.9913 115.538 47.2223L116.594 49.3884C117.195 50.6194 117.507 51.9765 117.507 53.3525V57.1691H130.958V48.3053L130.958 48.3045Z" fill="#70CAFA"/>
<path d="M126.194 0H99.9443C98.8706 0 98 0.881069 98 1.96757V3.93514L99.9443 4.96435H128.139V1.96757C128.139 0.881069 127.268 0 126.194 0Z" fill="#4FA4E7"/>
<path d="M131.055 0H126.194V1.96757C126.194 3.05407 125.324 3.93514 124.25 3.93514H98C98 5.02164 98.8706 5.90271 99.9443 5.90271H131.055C132.129 5.90271 133 5.02164 133 3.93514V1.96757C133 0.88066 132.129 0 131.055 0Z" fill="#427FBF"/>
<path d="M126.194 55.0968H99.9443C98.8702 55.0968 98 55.9779 98 57.0644V59.032L99.9443 60.0612H128.139V57.064C128.139 55.9775 127.268 55.0964 126.194 55.0964V55.0968Z" fill="#427FBF"/>
<path d="M131.055 55.0969H126.194V57.0645C126.194 58.151 125.324 59.0321 124.25 59.0321H98C98 60.1186 98.8706 60.9996 99.9443 60.9996H131.055C132.129 60.9996 133 60.1186 133 59.0321V57.0645C133 55.9776 132.129 55.0969 131.055 55.0969Z" fill="#4FA4E7"/>
<path d="M112.438 46.4131C112.146 46.8551 110.931 47.7883 110.396 48.0339C110.161 48.1517 109.569 48.2794 109.229 48.3286V55.1063H125.854L125.563 48.3286C125.077 48.2794 123.55 48.1812 121.334 48.1812C120.408 48.1812 119.729 47.4445 118.854 46.7078C117.834 45.6764 116.776 44.5576 116.521 43.6136C115.889 43.4171 114.479 42.9947 114.479 43.4662C114.479 43.9377 113.896 44.8414 113.604 45.2343L112.438 46.4131Z" fill="url(#paint0_linear_134_8872)"/>
<path d="M104.854 19.744H126.146L118.271 27.8479C117.396 28.5846 116.666 30.1563 116.521 30.7947L114.625 30.5001L114.187 29.3213L104.854 19.744Z" fill="url(#paint1_linear_134_8872)"/>
</g>
<path d="M10.0762 80.9121V83.8926H11.8535V84.9727H10.0762V88.1582H8.77734V80.9121H10.0762ZM6.11133 88.3086C8.58594 88.3086 10.1855 89.252 10.1855 90.7285C10.1855 92.2461 8.58594 93.1484 6.11133 93.1621C3.60938 93.1484 1.99609 92.2461 1.99609 90.7285C1.99609 89.252 3.60938 88.3086 6.11133 88.3086ZM6.11133 89.3613C4.36133 89.375 3.26758 89.8672 3.26758 90.7285C3.26758 91.5898 4.36133 92.1094 6.11133 92.123C7.82031 92.1094 8.91406 91.5898 8.91406 90.7285C8.91406 89.8672 7.82031 89.375 6.11133 89.3613ZM2.31055 81.6367V86.0938C3.97168 86.0801 5.70801 85.9502 7.58789 85.5742L7.75195 86.627C5.6875 87.0371 3.81445 87.1738 2.00977 87.1738H1.01172V81.6367H2.31055ZM22.6953 80.9121V93.1895H21.3965V80.9121H22.6953ZM14.5332 81.9375V85.082H17.8281V81.9375H19.1133V90.25H13.2344V81.9375H14.5332ZM14.5332 89.1836H17.8281V86.1074H14.5332V89.1836ZM31.7871 84.8359V85.8887H29.3945V87.4336C30.4814 87.3857 31.5615 87.3105 32.5664 87.2012L32.6621 88.1582C30.0508 88.5137 27.1797 88.582 24.8828 88.582L24.7051 87.543C25.751 87.5361 26.9199 87.5225 28.1094 87.4883V85.8887H25.7988V81.6914H31.6777V82.7441H27.0977V84.8359H31.7871ZM34.8086 80.9121V90.0996H33.5098V80.9121H34.8086ZM35.1914 91.8496V92.9023H26.7285V89.4434H28.0273V91.8496H35.1914ZM44.666 84.0293C44.6523 86.2715 46.0059 88.5137 47.9062 89.3613L47.127 90.3867C45.7188 89.7168 44.6045 88.3428 44.0371 86.668C43.4629 88.459 42.335 89.9424 40.8652 90.6602L40.0723 89.5664C42 88.7051 43.3535 86.3672 43.3535 84.0293V81.9375H44.666V84.0293ZM50.3125 80.9121V93.1895H49.0137V80.9121H50.3125ZM61.8926 80.9121V84.5352H63.6699V85.6152H61.8926V89.8125H60.5801V80.9121H61.8926ZM58.5703 81.8418C58.5703 85.0547 56.3828 87.3926 52.8008 88.4727L52.2539 87.4336C55.1182 86.5723 56.9023 84.9453 57.1621 82.9219H52.7734V81.8418H58.5703ZM62.3984 91.8496V92.9023H54.1133V88.8965H55.4258V91.8496H62.3984ZM69.9453 81.1172C72.707 81.1172 74.3203 81.8555 74.3203 83.2227C74.3203 84.5898 72.707 85.3418 69.9453 85.3418C67.1836 85.3418 65.5703 84.5898 65.5703 83.2227C65.5703 81.8555 67.1836 81.1172 69.9453 81.1172ZM69.9453 82.0742C67.9902 82.0742 66.9102 82.498 66.9238 83.2227C66.9102 83.9746 67.9902 84.3711 69.9453 84.3711C71.9004 84.3711 72.9805 83.9746 72.9805 83.2227C72.9805 82.498 71.9004 82.0742 69.9453 82.0742ZM75.5371 86.0938V87.1328H64.3672V86.0938H75.5371ZM74.1289 88.0762V90.9473H66.9922V92.041H74.4707V93.0391H65.7207V90.0039H72.8438V89.0469H65.707V88.0762H74.1289ZM89.5098 80.9121V83.8926H91.2871V84.9727H89.5098V88.1582H88.2109V80.9121H89.5098ZM85.5449 88.3086C88.0195 88.3086 89.6191 89.252 89.6191 90.7285C89.6191 92.2461 88.0195 93.1484 85.5449 93.1621C83.043 93.1484 81.4297 92.2461 81.4297 90.7285C81.4297 89.252 83.043 88.3086 85.5449 88.3086ZM85.5449 89.3613C83.7949 89.375 82.7012 89.8672 82.7012 90.7285C82.7012 91.5898 83.7949 92.1094 85.5449 92.123C87.2539 92.1094 88.3477 91.5898 88.3477 90.7285C88.3477 89.8672 87.2539 89.375 85.5449 89.3613ZM81.7441 81.6367V86.0938C83.4053 86.0801 85.1416 85.9502 87.0215 85.5742L87.1855 86.627C85.1211 87.0371 83.248 87.1738 81.4434 87.1738H80.4453V81.6367H81.7441ZM98.1914 81.9922V87.707H92.4629V81.9922H98.1914ZM93.7344 83.0449V86.6816H96.9199V83.0449H93.7344ZM101.609 80.8984V84.5625H103.387V85.6562H101.609V89.8809H100.311V80.8984H101.609ZM102.129 91.8496V92.9023H93.8438V89.0195H95.1426V91.8496H102.129ZM109.662 81.6504C112.232 81.6504 114.188 83.0039 114.188 85.0684C114.188 87.1328 112.232 88.5 109.662 88.4863C107.092 88.5 105.15 87.1328 105.15 85.0684C105.15 83.0039 107.092 81.6504 109.662 81.6504ZM109.662 82.7031C107.789 82.6895 106.381 83.6465 106.395 85.0684C106.381 86.5039 107.789 87.4199 109.662 87.4199C111.535 87.4199 112.93 86.5039 112.93 85.0684C112.93 83.6465 111.535 82.6895 109.662 82.7031ZM115.295 90.4961V91.5762H104.084V90.4961H115.295ZM127.395 90.6055V91.6992H116.184V90.6055H121.119V88.459H117.551V84.5625H124.742V82.8398H117.523V81.7734H126.027V85.6016H118.836V87.3926H126.314V88.459H122.404V90.6055H127.395ZM141.244 80.9121V85.6562H143.213V86.75H141.244V93.1621H139.945V80.9121H141.244ZM133.451 81.9375V85.082H136.691V81.9375H137.977V90.25H132.166V81.9375H133.451ZM133.451 89.1836H136.691V86.1074H133.451V89.1836ZM154.971 86.7773V87.8574H150.008V93.1621H148.709V87.8574H143.801V86.7773H146.863C147.335 85.0137 147.417 83.6943 147.438 82.7852H144.689V81.7324H148.709V82.2383C148.709 83.0791 148.709 84.6035 148.176 86.7773H151.99C152.366 85.0137 152.421 83.708 152.428 82.7852H149.598V81.7324H153.713V82.375C153.713 83.2637 153.713 84.7266 153.303 86.7773H154.971ZM165.812 84.4941V85.5332H157.377V81.3496H158.662V84.4941H165.812ZM167.098 87.0781V88.1172H155.887V87.0781H167.098ZM165.895 91.8086V92.875H157.281V89.2793H158.58V91.8086H165.895ZM182.588 86.5859V87.6387H177.639V88.8145C179.888 88.9375 181.221 89.6963 181.221 90.9746C181.221 92.3691 179.635 93.1484 176.996 93.1348C174.33 93.1484 172.744 92.3691 172.744 90.9746C172.744 89.6963 174.077 88.9375 176.354 88.8145V87.6387H171.418V86.5859H182.588ZM176.996 89.7988C175.123 89.7988 174.057 90.2227 174.057 90.9746C174.057 91.7129 175.123 92.1504 176.996 92.1367C178.842 92.1504 179.922 91.7129 179.922 90.9746C179.922 90.2227 178.842 89.7988 176.996 89.7988ZM181.59 81.4727V82.5117H177.871C178.056 83.6943 179.778 84.6992 182.014 84.918L181.549 85.9434C179.43 85.6973 177.673 84.8018 177.01 83.4961C176.326 84.8018 174.576 85.6973 172.457 85.9434L172.006 84.918C174.207 84.6992 175.937 83.6943 176.121 82.5117H172.443V81.4727H181.59ZM193.676 80.9121V87.4883H192.377V80.9121H193.676ZM186.936 88.0762V89.457H192.391V88.0762H193.676V93.0117H185.664V88.0762H186.936ZM186.936 91.9453H192.391V90.4824H186.936V91.9453ZM187.031 81.4727C188.904 81.4727 190.285 82.6348 190.285 84.3164C190.285 85.998 188.904 87.1602 187.031 87.1465C185.158 87.1602 183.764 85.998 183.764 84.3164C183.764 82.6348 185.158 81.4727 187.031 81.4727ZM187.031 82.5664C185.869 82.5527 185.035 83.2773 185.035 84.3164C185.035 85.3691 185.869 86.0801 187.031 86.0801C188.18 86.0801 189.014 85.3691 189.014 84.3164C189.014 83.2773 188.18 82.5527 187.031 82.5664ZM205.789 80.9121V93.1621H204.49V80.9121H205.789ZM197.654 82.1016V88.9238C199.438 88.9102 201.318 88.7666 203.287 88.3633L203.465 89.457C201.291 89.8945 199.322 90.0449 197.395 90.0449H196.369V82.1016H197.654ZM217.26 80.9121V85.6562H219.229V86.7227H217.26V93.1895H215.961V80.9121H217.26ZM213.965 82.0879V83.1406H209.535V89.0605C211.593 89.0537 213.138 88.9648 214.881 88.6504L215.045 89.7441C213.131 90.0859 211.504 90.1543 209.221 90.1406H208.236V82.0879H213.965ZM221.211 92.0957C220.678 92.0957 220.227 91.6582 220.24 91.125C220.227 90.5918 220.678 90.1543 221.211 90.1543C221.73 90.1543 222.182 90.5918 222.182 91.125C222.182 91.6582 221.73 92.0957 221.211 92.0957ZM224.902 92.0957C224.369 92.0957 223.918 91.6582 223.932 91.125C223.918 90.5918 224.369 90.1543 224.902 90.1543C225.422 90.1543 225.873 90.5918 225.873 91.125C225.873 91.6582 225.422 92.0957 224.902 92.0957ZM228.594 92.0957C228.061 92.0957 227.609 91.6582 227.623 91.125C227.609 90.5918 228.061 90.1543 228.594 90.1543C229.113 90.1543 229.564 90.5918 229.564 91.125C229.564 91.6582 229.113 92.0957 228.594 92.0957Z" fill="white"/>
<defs>
<linearGradient id="paint0_linear_134_8872" x1="108.938" y1="51.4228" x2="125.125" y2="51.5671" gradientUnits="userSpaceOnUse">
<stop stop-color="#FFA873"/>
<stop offset="1" stop-color="#70CAFA"/>
</linearGradient>
<linearGradient id="paint1_linear_134_8872" x1="122.646" y1="23.4276" x2="108.062" y2="23.2833" gradientUnits="userSpaceOnUse">
<stop stop-color="#FFA873"/>
<stop offset="1" stop-color="#70CAFA"/>
</linearGradient>
<clipPath id="clip0_134_8872">
<rect width="35" height="61" fill="white" transform="translate(98)"/>
</clipPath>
</defs>
</svg>
